<svg width="12" height="12" viewBox="0 0 12 12" fill="none" xmlns="http://www.w3.org/2000/svg">
<path d="M12 6C12 9.31308 9.31308 12 6 12C2.68692 12 0 9.31308 0 6C0 2.68692 2.68692 0 6 0C9.31308 0 12 2.68692 12 6ZM10.8428 6C10.8428 3.32893 8.679 1.1572 6 1.1572C3.321 1.1572 1.16513 3.32893 1.16513 6C1.16513 8.67107 3.32893 10.8428 6.00793 10.8428C8.68692 10.8428 10.8428 8.67107 10.8428 6ZM5.44518 6.82431C5.37384 6.76882 5.32629 6.68164 5.32629 6.58653V2.61559C5.32629 2.45707 5.4531 2.32232 5.61955 2.32232H6.3963C6.55482 2.32232 6.68956 2.44914 6.68956 2.61559V6.04756L8.30647 7.22061C8.43329 7.31572 8.46499 7.49802 8.36988 7.62483L7.9181 8.25099C7.82299 8.37781 7.64069 8.40951 7.51387 8.3144L5.44518 6.82431Z" fill="#979797"/>
</svg>
