<svg width="24" height="16" viewBox="0 0 24 16" fill="none" xmlns="http://www.w3.org/2000/svg">
<g clip-path="url(#clip0)">
<path d="M23.9905 0H0V16.0003H23.9905V0Z" fill="#000066"/>
<path d="M0 0V1.78889L21.3083 16.0004H23.9905V14.2115L2.68214 5.33344e-05H0L0 0ZM23.9905 0V1.78884L2.68214 16.0003H0V14.2115L21.3083 0H23.9905Z" fill="white"/>
<path d="M9.99603 0V16.0003H13.9944V0H9.99603ZM0 5.33344V10.6669H23.9905V5.33344H0Z" fill="white"/>
<path d="M0 6.40013V9.60019H23.9905V6.40013H0ZM10.7957 0V16.0003H13.1948V0H10.7957Z" fill="#CC0000"/>
<path d="M0 16.0003L7.99683 10.6669H9.78492L1.78809 16.0003H0H0ZM0 0L7.99683 5.33344H6.20874L0 1.19261V0L0 0ZM14.2056 5.33344L22.2024 0H23.9905L15.9937 5.33344H14.2056ZM23.9905 16.0003L15.9937 10.6669H17.7817L23.9905 14.8078V16.0003Z" fill="#CC0000"/>
</g>
<defs>
<clipPath id="clip0">
<rect width="23.99" height="16" fill="white"/>
</clipPath>
</defs>
</svg>
