<svg width="60" height="60" viewBox="0 0 60 60" fill="none" xmlns="http://www.w3.org/2000/svg">
<g clip-path="url(#clip0)">
<path fill-rule="evenodd" clip-rule="evenodd" d="M52.5 11.2495H7.5C6.50544 11.2495 5.55161 11.6446 4.84835 12.3479C4.14509 13.0511 3.75 14.005 3.75 14.9995V44.9995C3.75 45.9941 4.14509 46.9479 4.84835 47.6512C5.55161 48.3544 6.50544 48.7495 7.5 48.7495H52.5C53.4946 48.7495 54.4484 48.3544 55.1516 47.6512C55.8549 46.9479 56.25 45.9941 56.25 44.9995V14.9995C56.25 14.005 55.8549 13.0511 55.1516 12.3479C54.4484 11.6446 53.4946 11.2495 52.5 11.2495ZM7.5 7.49951C5.51088 7.49951 3.60322 8.28969 2.1967 9.69621C0.790176 11.1027 0 13.0104 0 14.9995L0 44.9995C0 46.9886 0.790176 48.8963 2.1967 50.3028C3.60322 51.7093 5.51088 52.4995 7.5 52.4995H52.5C54.4891 52.4995 56.3968 51.7093 57.8033 50.3028C59.2098 48.8963 60 46.9886 60 44.9995V14.9995C60 13.0104 59.2098 11.1027 57.8033 9.69621C56.3968 8.28969 54.4891 7.49951 52.5 7.49951H7.5Z" fill="white"/>
<path fill-rule="evenodd" clip-rule="evenodd" d="M0.266713 15.9107C0.393243 15.6994 0.560161 15.5151 0.757932 15.3683C0.955704 15.2215 1.18045 15.1152 1.41935 15.0553C1.65824 14.9954 1.90659 14.9831 2.15021 15.0192C2.39384 15.0553 2.62796 15.1391 2.83921 15.2657L30.0005 31.5632L57.1617 15.2657C57.373 15.1391 57.6071 15.0554 57.8507 15.0193C58.0943 14.9832 58.3427 14.9955 58.5815 15.0554C58.8204 15.1153 59.0452 15.2216 59.2429 15.3684C59.4407 15.5151 59.6077 15.6994 59.7342 15.9107C59.8608 16.1219 59.9445 16.3561 59.9806 16.5997C60.0166 16.8433 60.0044 17.0916 59.9445 17.3305C59.8846 17.5694 59.7782 17.7941 59.6315 17.9919C59.4847 18.1897 59.3005 18.3566 59.0892 18.4832L30.0005 35.9357L0.911713 18.4869C0.700415 18.3604 0.516116 18.1935 0.369341 17.9957C0.222566 17.7979 0.116192 17.5732 0.0562952 17.3343C-0.00360163 17.0954 -0.0158478 16.8471 0.0202562 16.6034C0.0563603 16.3598 0.140107 16.1257 0.266713 15.9144V15.9107Z" fill="white"/>
<path d="M25.3197 33.4946L26.9397 32.5496L25.0497 29.3096L23.4297 30.2546L25.3197 33.4946ZM2.81969 46.6196L25.3197 33.4946L23.4297 30.2546L0.929688 43.3796L2.81969 46.6196ZM34.6797 33.4946L33.0597 32.5496L34.9497 29.3096L36.5697 30.2546L34.6797 33.4946ZM57.1797 46.6196L34.6797 33.4946L36.5697 30.2546L59.0697 43.3796L57.1797 46.6196Z" fill="white"/>
</g>
<defs>
<clipPath id="clip0">
<rect width="60" height="60" fill="white" transform="translate(0 -0.000488281)"/>
</clipPath>
</defs>
</svg>
