<svg width="59" height="60" viewBox="0 0 59 60" fill="none" xmlns="http://www.w3.org/2000/svg">
<g clip-path="url(#clip0)">
<path d="M46.6528 36.6013C45.4432 35.3418 43.9842 34.6684 42.4379 34.6684C40.904 34.6684 39.4325 35.3293 38.173 36.5888L34.2324 40.5169C33.9082 40.3423 33.584 40.1802 33.2722 40.0181C32.8233 39.7937 32.3993 39.5817 32.0376 39.3572C28.3464 37.0128 24.9919 33.9576 21.7746 30.0045C20.2158 28.0342 19.1683 26.3756 18.4076 24.6921C19.4302 23.7568 20.3779 22.7842 21.3007 21.8489C21.6499 21.4997 21.999 21.1381 22.3482 20.7889C24.967 18.1702 24.967 14.7782 22.3482 12.1595L18.9438 8.75507C18.5572 8.36849 18.1582 7.96945 17.7841 7.5704C17.0359 6.79724 16.2502 5.99914 15.4397 5.25092C14.23 4.05377 12.7835 3.41779 11.2621 3.41779C9.74074 3.41779 8.26924 4.05377 7.02221 5.25092C7.00974 5.26339 7.00974 5.26339 6.99727 5.27586L2.75737 9.55317C1.16117 11.1494 0.250838 13.0947 0.0513134 15.3519C-0.247974 18.9932 0.824472 22.3851 1.64751 24.6048C3.6677 30.0543 6.68551 35.1048 11.1873 40.5169C16.6493 47.0389 23.2211 52.1891 30.7283 55.818C33.5964 57.1773 37.4248 58.7859 41.7021 59.0603C41.964 59.0727 42.2383 59.0852 42.4877 59.0852C45.3684 59.0852 47.7876 58.0502 49.6831 55.9926C49.6956 55.9676 49.7205 55.9552 49.733 55.9302C50.3814 55.1446 51.1297 54.4338 51.9153 53.6731C52.4515 53.1618 53.0002 52.6256 53.5364 52.0644C54.771 50.78 55.4194 49.2836 55.4194 47.7497C55.4194 46.2034 54.7585 44.7194 53.499 43.4724L46.6528 36.6013ZM51.1172 49.7325C51.1047 49.7325 51.1047 49.745 51.1172 49.7325C50.6309 50.2562 50.132 50.7301 49.5958 51.2539C48.7852 52.027 47.9622 52.8376 47.1891 53.7479C45.9296 55.0947 44.4456 55.7307 42.5002 55.7307C42.3132 55.7307 42.1136 55.7307 41.9266 55.7182C38.2229 55.4813 34.7811 54.0347 32.1997 52.8002C25.1416 49.3833 18.9438 44.5324 13.7936 38.3845C9.54121 33.2592 6.69798 28.5205 4.81497 23.4326C3.65523 20.3275 3.23124 17.9083 3.41829 15.6262C3.543 14.1672 4.10416 12.9576 5.1392 11.9225L9.39157 7.67016C10.0026 7.09652 10.6511 6.78477 11.2871 6.78477C12.0727 6.78477 12.7087 7.25864 13.1077 7.65769C13.1202 7.67016 13.1327 7.68263 13.1451 7.6951C13.9058 8.40591 14.6291 9.14165 15.3898 9.92728C15.7764 10.3263 16.1754 10.7254 16.5745 11.1369L19.9789 14.5413C21.3007 15.8631 21.3007 17.0852 19.9789 18.4071C19.6172 18.7687 19.268 19.1304 18.9064 19.4795C17.8589 20.552 16.8613 21.5496 15.7764 22.5223C15.7514 22.5472 15.7265 22.5597 15.714 22.5846C14.6416 23.6571 14.8411 24.7046 15.0656 25.4154C15.078 25.4528 15.0905 25.4902 15.103 25.5276C15.9884 27.6725 17.2354 29.6927 19.1309 32.0995L19.1433 32.1119C22.5851 36.3519 26.214 39.6565 30.217 42.188C30.7283 42.5122 31.252 42.7741 31.7508 43.0235C32.1997 43.2479 32.6237 43.4599 32.9854 43.6844C33.0353 43.7093 33.0851 43.7467 33.135 43.7717C33.559 43.9837 33.9581 44.0834 34.3696 44.0834C35.4046 44.0834 36.0531 43.435 36.2651 43.223L40.5299 38.9581C40.9539 38.5342 41.6273 38.0229 42.4129 38.0229C43.1861 38.0229 43.8221 38.5092 44.2086 38.9332C44.2211 38.9457 44.2211 38.9457 44.2336 38.9581L51.1047 45.8293C52.3892 47.1013 52.3892 48.4106 51.1172 49.7325Z" fill="white"/>
<path d="M31.8877 14.055C35.1549 14.6037 38.1228 16.15 40.4922 18.5193C42.8615 20.8887 44.3954 23.8566 44.9565 27.1238C45.0937 27.9469 45.8045 28.5205 46.6151 28.5205C46.7148 28.5205 46.8021 28.508 46.9019 28.4956C47.8247 28.3459 48.4357 27.473 48.2861 26.5502C47.6127 22.5971 45.7422 18.9932 42.8865 16.1375C40.0308 13.2818 36.4269 11.4113 32.4738 10.7379C31.551 10.5882 30.6905 11.1993 30.5284 12.1096C30.3663 13.0199 30.9649 13.9053 31.8877 14.055Z" fill="white"/>
<path d="M58.9739 26.0638C57.864 19.5543 54.7964 13.6309 50.0826 8.91711C45.3688 4.20334 39.4454 1.13564 32.9359 0.0257878C32.0256 -0.136326 31.1651 0.487189 31.003 1.39752C30.8534 2.32032 31.4644 3.18077 32.3872 3.34289C38.1984 4.32804 43.4982 7.08398 47.7132 11.2865C51.9282 15.5014 54.6716 20.8013 55.6568 26.6125C55.794 27.4355 56.5048 28.0091 57.3154 28.0091C57.4151 28.0091 57.5024 27.9967 57.6022 27.9842C58.5125 27.847 59.136 26.9741 58.9739 26.0638Z" fill="white"/>
</g>
<defs>
<clipPath id="clip0">
<rect width="58.9995" height="59.0855" fill="white" transform="translate(0 -0.000488281)"/>
</clipPath>
</defs>
</svg>
