<svg width="78" height="40" viewBox="0 0 78 40" fill="none" xmlns="http://www.w3.org/2000/svg">
<path d="M75.3133 28.3641L74.931 28.1077C73.6052 27.2164 73.2398 26.7677 73.2398 26.0245C73.2398 25.0828 74.1401 24.747 74.9109 24.747C76.1843 24.747 76.5389 25.3041 76.5512 25.3224C76.6191 25.443 76.7208 25.7742 76.7362 25.9192C76.7501 26.0107 76.7748 26.1832 76.9736 26.1832C77.1956 26.1832 77.1956 25.9421 77.1956 25.7818C77.1956 25.0935 77.2326 24.689 77.2496 24.5181C77.2542 24.4677 77.2573 24.4357 77.2573 24.422C77.2573 24.2174 77.0738 24.2175 77.0045 24.2175C76.9012 24.2175 76.804 24.2175 76.5574 24.161C76.2398 24.0862 75.7003 24.0068 75.1406 24.0068C73.2614 24.0068 72.0482 25.0004 72.0482 26.5388C72.0482 27.5217 72.6201 28.3458 74.0184 29.3806L74.6304 29.8354C75.8267 30.7145 76.2784 31.1281 76.2784 31.9812C76.2784 32.9641 75.5507 33.5746 74.3775 33.5746C73.5358 33.5746 72.5662 33.2632 72.3673 32.3902C72.3241 32.2224 72.3241 32.0514 72.3241 31.9492C72.3241 31.7538 72.2008 31.6851 72.0867 31.6851C72.005 31.6851 71.8663 31.7279 71.8663 32.0026C71.8632 32.0453 71.8586 32.1002 71.8524 32.1674C71.8293 32.4269 71.7892 32.8618 71.7892 33.3716C71.7892 33.718 71.8015 33.834 72.0543 33.9592C72.745 34.2812 73.6854 34.3178 74.0584 34.3178C75.0312 34.3178 75.7712 34.1591 76.2583 33.8447C77.1232 33.2861 77.5625 32.5169 77.5625 31.5569C77.5625 30.3695 76.912 29.4447 75.3133 28.3641Z" fill="#0C1C56"/>
<path d="M12.4747 22.0017C12.1556 22.0017 11.744 22.0231 11.4711 22.0383C11.354 22.0444 11.2692 22.049 11.2399 22.049C11.1736 22.049 11.041 22.0429 10.8684 22.0353C10.5446 22.02 10.0991 22.0017 9.68902 22.0017C9.52407 22.0017 9.21729 22.0017 9.21729 22.249C9.21729 22.3298 9.25738 22.4642 9.51483 22.4642C9.68132 22.4642 9.90639 22.4642 10.0621 22.513C10.1808 22.5725 10.1993 22.6961 10.1993 22.7648C10.1993 22.9022 10.1222 23.1494 10.0636 23.3265C9.74144 24.3688 7.78359 29.4389 6.7985 31.7388L3.86328 23.9919C3.64745 23.4394 3.44396 22.9174 3.44396 22.7343C3.44396 22.6488 3.46708 22.5802 3.57654 22.5313C3.69062 22.4809 3.94498 22.4642 4.12844 22.4642C4.38126 22.4642 4.40901 22.3024 4.40901 22.2322C4.40901 22.0017 4.06523 22.0017 3.85865 22.0017C3.45938 22.0017 3.00614 22.0231 2.70707 22.0368C2.55445 22.0429 2.43883 22.049 2.38641 22.049C2.32321 22.049 2.18138 22.0429 1.99485 22.0368C1.61561 22.0231 1.04213 22.0017 0.533398 22.0017C0.308323 22.0017 0 22.0017 0 22.2322C0 22.3726 0.0971216 22.4642 0.248199 22.4642C0.33453 22.4642 0.596604 22.4642 0.817054 22.5221C1.31654 22.6641 1.53699 22.7999 1.87614 23.6576L5.75638 33.2696L5.79954 33.378C6.08782 34.0999 6.17569 34.3196 6.43931 34.3196C6.63818 34.3196 6.71063 34.1594 6.95266 33.6267C7.02358 33.4726 7.10837 33.2864 7.21474 33.0575C7.56931 32.3112 8.24146 30.7178 9.17259 28.5109L9.8956 26.7848C10.4614 25.4357 10.9069 24.3704 11.0349 24.0499C11.4495 23.0151 11.6777 22.7572 11.8596 22.6336C12.1294 22.4641 12.4485 22.4642 12.5533 22.4642C12.8247 22.4642 12.8647 22.3192 12.8647 22.2322C12.8663 22.0795 12.7352 22.0017 12.4747 22.0017Z" fill="#C4842A"/>
<path d="M15.8973 33.6572C15.7863 33.6572 15.5073 33.6297 15.2992 33.5977C15.0001 33.5519 14.9569 33.41 14.9092 33.0177C14.849 32.4912 14.849 31.4961 14.849 30.2339V27.9553C14.849 25.9484 14.849 25.5867 14.8629 25.1838C14.8937 24.7427 14.9616 24.6343 15.2437 24.5763C15.3855 24.5473 15.4688 24.5473 15.5582 24.5473C15.6707 24.5473 15.7848 24.4344 15.7848 24.323C15.7848 24.1734 15.6723 24.0986 15.4518 24.0986C15.1512 24.0986 14.6101 24.1139 14.3095 24.1231C14.1954 24.1261 14.1183 24.1292 14.1014 24.1292C14.0798 24.1292 13.9919 24.1261 13.8686 24.1231C13.5664 24.1139 13.05 24.0986 12.7339 24.0986C12.5135 24.0986 12.3994 24.1734 12.3994 24.323C12.3994 24.4283 12.4919 24.5473 12.6245 24.5473C12.7093 24.5473 12.8711 24.5626 13.0145 24.5916C13.2118 24.6328 13.3182 24.7351 13.3506 25.1838C13.3799 25.5897 13.3799 25.9514 13.3799 27.9553V30.2339C13.3799 31.2901 13.3706 32.4439 13.3043 33.0177C13.2565 33.4191 13.2118 33.5595 13.0407 33.6007C12.9282 33.6297 12.7679 33.6587 12.6553 33.6587C12.5135 33.6587 12.4287 33.7732 12.4287 33.8831C12.4287 33.967 12.4719 34.1074 12.7632 34.1074C13.0561 34.1074 13.5587 34.0845 13.8593 34.0708C13.9857 34.0647 14.0767 34.0616 14.0983 34.0616C14.1121 34.0616 14.163 34.0647 14.2432 34.0677C14.5299 34.08 15.199 34.109 15.7879 34.109C16.0962 34.109 16.1209 33.9365 16.1209 33.8846C16.1224 33.7717 16.0392 33.6572 15.8973 33.6572Z" fill="#C4842A"/>
<path d="M27.304 24.0988C26.9402 24.0988 26.6227 24.1125 26.4037 24.1217C26.2912 24.1263 26.2049 24.1308 26.1525 24.1308C26.1016 24.1308 25.9983 24.1278 25.8596 24.1232C25.5759 24.114 25.152 24.1003 24.7403 24.1003C24.6263 24.1003 24.3611 24.1003 24.3611 24.3094C24.3611 24.4529 24.4521 24.549 24.5877 24.549C24.6879 24.549 24.987 24.5643 25.226 24.6085C25.5235 24.6635 25.6191 24.8192 25.636 25.6952L25.7686 31.8656C25.6299 31.7206 25.4541 31.5359 25.2491 31.3207C24.5831 30.6202 23.6705 29.6618 22.7856 28.7552C21.3673 27.3099 20.0169 25.9058 19.2106 25.0664C18.8344 24.6757 18.5847 24.4162 18.5169 24.3476L18.4537 24.285C18.2502 24.0774 18.079 23.9187 17.911 23.9187C17.632 23.9187 17.6089 24.3155 17.6089 24.6894V32.09C17.6089 33.2438 17.5534 33.5215 17.3082 33.5887C17.1232 33.6451 16.8905 33.6589 16.7918 33.6589C16.6654 33.6589 16.5652 33.7581 16.5652 33.8832C16.5652 34.1076 16.8072 34.1076 16.8982 34.1076C17.3252 34.1076 17.7353 34.0847 17.9804 34.071C18.0883 34.0648 18.1654 34.0618 18.2039 34.0618C18.2378 34.0618 18.3041 34.0664 18.3982 34.071C18.6525 34.0847 19.078 34.1076 19.6299 34.1076C19.9305 34.1076 19.9953 33.9855 19.9953 33.8832C19.9953 33.7581 19.8951 33.6589 19.7687 33.6589C19.6268 33.6589 19.3385 33.639 19.1243 33.5871C18.8499 33.5185 18.7234 33.3063 18.6911 32.2227L18.5462 26.443C19.1181 27.055 20.3791 28.366 21.8329 29.8754C23.245 31.3345 25.1997 33.2437 25.3524 33.3765C26.154 34.106 26.2789 34.1976 26.4608 34.1976C26.6874 34.1976 26.6874 34.0175 26.6874 33.1537L26.7182 25.5853C26.7182 24.7764 26.7691 24.6436 27.099 24.5765C27.2408 24.5475 27.3395 24.5475 27.3996 24.5475C27.5553 24.5475 27.671 24.4223 27.671 24.3079C27.6679 24.0988 27.4043 24.0988 27.304 24.0988Z" fill="#C4842A"/>
<path d="M40.0697 33.6572C39.9741 33.6572 39.6765 33.6282 39.4885 33.5977C39.1786 33.5519 39.1478 33.4206 39.0984 33.0177C39.0306 32.4393 39.0214 31.2855 39.0214 30.2339V27.9553C39.0214 25.9514 39.0214 25.5897 39.0522 25.1822C39.083 24.7412 39.1478 24.6328 39.416 24.5763C39.5733 24.5473 39.6442 24.5473 39.732 24.5473C39.8554 24.5473 39.9725 24.439 39.9725 24.323C39.9725 24.2207 39.9124 24.0986 39.6226 24.0986C39.3436 24.0986 38.841 24.1139 38.5358 24.1231C38.4047 24.1276 38.3107 24.1307 38.2876 24.1307C38.2737 24.1307 38.212 24.1292 38.1195 24.1261C37.8235 24.117 37.2084 24.1002 36.7536 24.1002C36.5317 24.1002 36.4207 24.175 36.4207 24.3245C36.4207 24.4298 36.5132 24.5489 36.6473 24.5489C36.7614 24.5489 36.9849 24.5641 37.0913 24.5779C37.4397 24.6267 37.4952 24.7442 37.5245 25.1975C37.5399 25.5974 37.5553 26.011 37.5553 27.9874V28.2194H32.007V27.9889C32.007 26.0018 32.007 25.5897 32.0224 25.1853C32.0517 24.7457 32.1196 24.6374 32.4032 24.5779C32.5435 24.5489 32.6283 24.5489 32.7177 24.5489C32.8303 24.5489 32.9428 24.4359 32.9428 24.3245C32.9428 24.175 32.8303 24.1002 32.6098 24.1002C32.3092 24.1002 31.7758 24.1154 31.4798 24.1246C31.3688 24.1276 31.2917 24.1307 31.2748 24.1307C31.2547 24.1307 31.1838 24.1292 31.0774 24.1246C30.7691 24.1154 30.1802 24.0986 29.7254 24.0986C29.505 24.0986 29.3925 24.1734 29.3925 24.323C29.3925 24.4344 29.5081 24.5473 29.6191 24.5473C29.7332 24.5473 29.9551 24.5626 30.0631 24.5763C30.4223 24.6267 30.4839 24.758 30.5132 25.1838C30.544 25.5897 30.544 25.9499 30.544 27.9553V30.2339C30.544 31.4946 30.544 32.4897 30.467 33.0131L30.4608 33.0498C30.3991 33.4344 30.3652 33.561 30.2033 33.5992C30.0908 33.6282 29.9305 33.6572 29.8179 33.6572C29.6761 33.6572 29.5913 33.7717 29.5913 33.8816C29.5913 33.9655 29.6345 34.1059 29.9259 34.1059C30.2188 34.1059 30.729 34.083 31.0327 34.0693C31.1607 34.0632 31.2532 34.0601 31.2748 34.0601C31.2886 34.0601 31.338 34.0632 31.4181 34.0662C31.7018 34.0784 32.3601 34.1074 32.949 34.1074C33.2573 34.1074 33.2819 33.935 33.2819 33.8831C33.2819 33.7747 33.2033 33.6587 33.0569 33.6587C32.9459 33.6587 32.6684 33.6312 32.4603 33.5992C32.1612 33.5534 32.1165 33.4115 32.0687 33.0193C32.007 32.4927 32.007 31.5098 32.007 30.266V29.016H37.5553V30.266C37.5553 31.5022 37.5553 32.4775 37.4936 33.0025C37.4443 33.41 37.3965 33.561 37.2131 33.6007C37.062 33.6389 36.934 33.6587 36.8431 33.6587C36.7012 33.6587 36.618 33.7732 36.618 33.8831C36.618 34.0311 36.7305 34.1074 36.951 34.1074C37.2408 34.1074 37.785 34.083 38.0764 34.0708C38.1904 34.0662 38.2706 34.0616 38.2876 34.0616C38.3061 34.0616 38.3693 34.0647 38.4648 34.0677C38.7685 34.08 39.4006 34.1074 39.9602 34.1074C40.2932 34.1074 40.3101 33.9212 40.3101 33.8831C40.3117 33.7701 40.2284 33.6572 40.0697 33.6572Z" fill="#0C1C56"/>
<path d="M45.8176 23.917C42.0407 23.917 40.3418 26.9358 40.3418 29.0801C40.3418 31.5815 42.0314 34.2737 45.7405 34.2737C48.8962 34.2737 51.2764 31.9555 51.2764 28.8817C51.2764 25.9117 49.0827 23.917 45.8176 23.917ZM46.1228 33.5045C43.6424 33.5045 41.9759 31.5846 41.9759 28.7291C41.9759 26.1681 43.3834 24.6374 45.7405 24.6374C47.6907 24.6374 49.6593 26.0628 49.6593 29.2449C49.6578 33.3 46.7133 33.5045 46.1228 33.5045Z" fill="#0C1C56"/>
<path d="M64.3578 33.6572C64.2283 33.6572 63.8845 33.6572 63.5207 33.5412C63.0798 33.3962 62.9672 32.8605 62.9117 32.3034L61.9898 24.3703C61.942 23.9963 61.791 23.917 61.6723 23.917C61.4919 23.917 61.4009 24.0971 61.3501 24.1963L57.5253 31.9906L53.5511 24.1795C53.437 23.9506 53.2612 23.917 53.1687 23.917C53.0269 23.917 52.9205 24.0482 52.8974 24.2497L51.9154 32.6819L51.9 32.8071C51.8429 33.2726 51.7952 33.561 51.493 33.6129L51.4545 33.619C51.288 33.645 51.2032 33.6572 51.1138 33.6572C50.9719 33.6572 50.8563 33.7503 50.8563 33.8662C50.8563 33.9548 50.901 34.1059 51.2063 34.1059C51.4421 34.1059 51.789 34.0876 52.0418 34.0738C52.1837 34.0662 52.2962 34.0601 52.3394 34.0601C52.3733 34.0601 52.4596 34.0647 52.5768 34.0708C52.845 34.0845 53.2504 34.1059 53.6004 34.1059C53.9025 34.1059 53.9658 33.9761 53.9658 33.8662C53.9658 33.7487 53.844 33.6572 53.7391 33.6572C53.6389 33.6572 53.4509 33.6373 53.2443 33.5839C53.013 33.5305 53.013 33.3824 53.013 33.3336C53.013 33.1215 53.013 32.8819 53.0269 32.6911L53.5187 27.1907C53.7669 27.7157 54.2263 28.6451 54.6101 29.4204C54.8075 29.8218 54.9848 30.1805 55.1035 30.4216C55.4519 31.1435 56.3645 32.8376 56.6867 33.4206C56.9503 33.8953 57.049 34.0738 57.2525 34.0738C57.456 34.0738 57.5485 33.9059 57.8352 33.3229L60.9292 27.0487L61.5397 33.2253C61.5644 33.4206 61.5505 33.5244 61.5381 33.561C61.4441 33.5946 61.384 33.6785 61.384 33.7732C61.384 33.9639 61.6152 34.0021 61.8742 34.0265C62.3752 34.0723 63.8891 34.1028 64.1882 34.1028C64.4287 34.1028 64.5844 34.0082 64.5844 33.8632C64.5844 33.7457 64.4888 33.6572 64.3578 33.6572Z" fill="#0C1C56"/>
<path d="M71.1349 32.1219C70.9376 32.1219 70.9006 32.305 70.8774 32.4195C70.8019 32.9307 70.62 33.1017 70.3394 33.2238C70.0064 33.3535 69.3713 33.3535 69.0306 33.3535C67.6971 33.3535 67.5661 33.1902 67.5383 32.4302C67.5275 32.247 67.5321 31.4152 67.5352 30.8063C67.5368 30.5667 67.5383 30.3576 67.5383 30.234L67.5398 29.1824C67.859 29.1839 69.194 29.1992 69.5393 29.2419C70.0681 29.303 70.1051 29.4571 70.1313 29.5624C70.1868 29.7089 70.1868 29.8295 70.1868 29.947C70.1868 30.1119 70.2932 30.1851 70.398 30.1851C70.5444 30.1851 70.6385 30.0432 70.6385 29.8249C70.6385 29.7456 70.6693 29.2633 70.6986 28.9962C70.7186 28.723 70.7572 28.5445 70.7819 28.4254C70.7973 28.3567 70.8065 28.3125 70.8065 28.2743C70.8065 28.108 70.7001 28.05 70.6092 28.05C70.5229 28.05 70.4627 28.1126 70.3795 28.198L70.3271 28.2514C70.2223 28.3537 70.0527 28.3705 69.7706 28.3979L69.7382 28.401C69.5193 28.4224 68.4679 28.4315 67.5352 28.4315C67.5352 28.4254 67.5352 28.4193 67.5352 28.4132V24.903C67.5352 24.8953 67.5352 24.8892 67.5368 24.8831C67.859 24.8846 69.2264 24.9014 69.4283 24.9274C70.1652 25.0189 70.2377 25.1059 70.3009 25.2494C70.3533 25.3807 70.3687 25.576 70.3687 25.6615C70.3687 25.9255 70.5414 25.9469 70.5953 25.9469C70.7202 25.9469 70.8065 25.8294 70.8327 25.7164C70.8528 25.6187 70.8713 25.3944 70.8913 25.112C70.899 24.996 70.9067 24.8969 70.9129 24.8495C70.9314 24.6343 70.9653 24.5 70.99 24.4008C71.0069 24.3322 71.0193 24.2818 71.0193 24.2329C71.0193 24.0055 70.8697 23.9949 70.8404 23.9949C70.7772 23.9949 70.7233 24.0193 70.6801 24.0376C70.6616 24.0452 70.6446 24.0544 70.64 24.0559L70.5568 24.0697C70.4304 24.0895 70.2392 24.12 70.0388 24.1307C69.9494 24.1353 69.6318 24.1383 69.0923 24.1383C68.3492 24.1383 67.3903 24.1338 66.9987 24.1322H66.8215C66.8014 24.1322 66.7274 24.1307 66.6164 24.1261C66.3035 24.117 65.7084 24.1002 65.2552 24.1002C65.0332 24.1002 64.9207 24.175 64.9207 24.3245C64.9207 24.4359 65.0347 24.5489 65.1473 24.5489C65.2691 24.5489 65.4941 24.5641 65.5928 24.5779C65.9504 24.6267 66.0121 24.758 66.0429 25.1853C66.0738 25.5913 66.0738 25.953 66.0738 27.9569V30.2355C66.0738 31.4961 66.0738 32.4912 65.9982 33.0147L65.9921 33.0544C65.932 33.4359 65.8965 33.5717 65.7485 33.5977C65.6992 33.6038 65.6437 33.6145 65.5882 33.6252C65.5018 33.6419 65.4124 33.6587 65.3477 33.6587C65.2058 33.6587 65.1226 33.7732 65.1226 33.8831C65.1226 33.967 65.1658 34.1074 65.4556 34.1074C65.6853 34.1074 66.0152 34.0891 66.2449 34.0769C66.5347 34.0616 66.7922 34.0617 66.823 34.0617C67.0142 34.0617 67.3718 34.0617 67.9391 34.0922L68.2721 34.1013C68.804 34.1181 69.4638 34.138 70.2901 34.138C70.8219 34.138 71.0408 34.138 71.158 33.7167C71.2366 33.4283 71.3461 32.54 71.3461 32.4393C71.3461 32.1524 71.1981 32.1219 71.1349 32.1219Z" fill="#0C1C56"/>
<path d="M27.6687 38.271H0.0198975V38.6266H27.6687V38.271Z" fill="#C4842A"/>
<path d="M29.6058 39.5269V37.3628H29.6521L31.1074 39.0218V37.3628H31.3232V39.5269H31.2739L29.8325 37.8893V39.5269H29.6058Z" fill="#C4842A"/>
<path d="M35.0979 37.3628H34.879V39.5269H35.0979V37.3628Z" fill="#C4842A"/>
<path d="M36.8639 37.3628H37.0797V38.2709H38.1958V37.3628H38.4132V39.5269H38.1958V38.48H37.0797V39.5269H36.8639V37.3628Z" fill="#C4842A"/>
<path d="M40.1644 37.3628L41.1849 39.5269H40.9475L40.6038 38.8142H39.6618L39.3211 39.5269H39.0791L40.1104 37.3628H40.1644ZM40.1382 37.8237L39.7651 38.6066H40.5097L40.1382 37.8237Z" fill="#C4842A"/>
<path d="M41.8512 39.5269V37.3628H41.899L43.3512 39.0218V37.3628H43.5639V39.5269H43.5177L42.0747 37.8893V39.5269H41.8512Z" fill="#C4842A"/>
<path d="M44.275 37.3628H44.4939V38.2709H45.6054V37.3628H45.8243V39.5269H45.6054V38.48H44.4939V39.5269H44.275V37.3628Z" fill="#C4842A"/>
<path d="M47.6274 37.3628H48.0637C48.3119 37.3628 48.4784 37.3735 48.5662 37.3948C48.6911 37.4269 48.7929 37.4895 48.873 37.5826C48.9516 37.6757 48.9917 37.7962 48.9917 37.9382C48.9917 38.0832 48.9516 38.2022 48.8746 38.2953C48.7975 38.3869 48.6926 38.4525 48.557 38.483C48.4568 38.5074 48.2733 38.5181 48.0005 38.5181H47.8448V39.5239H47.6259V37.3628H47.6274ZM47.8463 37.578V38.309L48.2163 38.3151C48.3658 38.3151 48.4737 38.2999 48.5447 38.2739C48.614 38.2465 48.668 38.2037 48.7081 38.1427C48.7466 38.0832 48.7666 38.0145 48.7666 37.9412C48.7666 37.868 48.7466 37.8039 48.7081 37.7428C48.668 37.6818 48.6156 37.639 48.5524 37.6146C48.4845 37.5902 48.3797 37.578 48.2317 37.578H47.8463Z" fill="#C4842A"/>
<path d="M49.6696 37.3628H49.8885V38.2709H51V37.3628H51.2173V39.5269H51V38.48H49.8885V39.5269H49.6696V37.3628Z" fill="#C4842A"/>
<path d="M51.9034 37.3628H52.1223V38.6677C52.1223 38.8234 52.1254 38.9211 52.13 38.9577C52.1408 39.0447 52.167 39.1164 52.2056 39.1729C52.2456 39.2293 52.3073 39.2782 52.389 39.3179C52.4723 39.356 52.554 39.3759 52.6372 39.3759C52.7081 39.3759 52.7806 39.3606 52.8438 39.3301C52.9116 39.2965 52.9656 39.2568 53.0118 39.2019C53.055 39.1469 53.0874 39.0828 53.1089 39.0065C53.1228 38.9516 53.1321 38.8386 53.1321 38.6677V37.3628H53.3479V38.6677C53.3479 38.8631 53.3294 39.0172 53.2908 39.1393C53.2523 39.2553 53.1783 39.3591 53.0642 39.4491C52.9486 39.5361 52.8099 39.5834 52.648 39.5834C52.4723 39.5834 52.3196 39.5391 52.1948 39.4552C52.0714 39.3728 51.9851 39.2629 51.9419 39.124C51.9157 39.0401 51.9019 38.889 51.9019 38.6677V37.3628H51.9034Z" fill="#C4842A"/>
<path d="M56.1622 37.7657L55.988 37.8954C55.8939 37.7733 55.7783 37.6787 55.6457 37.6162C55.5131 37.5536 55.3667 37.5215 55.2079 37.5215C55.0322 37.5215 54.8703 37.5643 54.7223 37.6482C54.5759 37.7291 54.4587 37.8405 54.377 37.9809C54.2953 38.1198 54.2537 38.2785 54.2537 38.451C54.2537 38.715 54.3446 38.9363 54.5281 39.1118C54.71 39.2889 54.9412 39.3774 55.2202 39.3774C55.5239 39.3774 55.7798 39.2568 55.9849 39.0202L56.1591 39.1485C56.0512 39.2858 55.9124 39.3942 55.7506 39.4674C55.5902 39.5422 55.4083 39.5819 55.2064 39.5819C54.8225 39.5819 54.5204 39.4537 54.3014 39.2019C54.1149 38.9882 54.0209 38.7333 54.0209 38.4311C54.0209 38.1137 54.1334 37.8466 54.36 37.6329C54.5851 37.4162 54.8641 37.3079 55.2017 37.3079C55.4083 37.3079 55.5902 37.3475 55.7536 37.4269C55.9217 37.5093 56.0573 37.6192 56.1622 37.7657Z" fill="#C4842A"/>
<path d="M57.9153 39.5269V37.3628H57.9631L59.4153 39.0218V37.3628H59.6311V39.5269H59.5818L58.1388 37.8893V39.5269H57.9153Z" fill="#C4842A"/>
<path d="M62.5127 37.726L62.3416 37.8878C62.2198 37.7673 62.0857 37.6757 61.9408 37.6146C61.7943 37.5551 61.6541 37.5231 61.5169 37.5231C61.3457 37.5231 61.1839 37.5658 61.0266 37.6497C60.8725 37.7321 60.7522 37.8466 60.6674 37.9885C60.5826 38.1289 60.541 38.2801 60.541 38.4403C60.541 38.6036 60.5857 38.7562 60.6736 38.9027C60.7599 39.0492 60.8817 39.1652 61.0374 39.2476C61.1916 39.3316 61.3627 39.3743 61.5477 39.3743C61.7728 39.3743 61.9608 39.3102 62.1165 39.1851C62.2722 39.0599 62.3663 38.8966 62.394 38.6982H61.6957V38.4891H62.6361C62.6345 38.8234 62.5359 39.0889 62.3354 39.2843C62.1366 39.4812 61.8714 39.5804 61.54 39.5804C61.1361 39.5804 60.8154 39.443 60.578 39.1698C60.3992 38.9592 60.3082 38.7165 60.3082 38.4418C60.3082 38.2373 60.3606 38.0465 60.4639 37.871C60.5703 37.694 60.7121 37.5566 60.8925 37.4559C61.0729 37.3582 61.2779 37.3079 61.5061 37.3079C61.6911 37.3079 61.8653 37.3414 62.0287 37.4071C62.1967 37.4757 62.3555 37.581 62.5127 37.726Z" fill="#C4842A"/>
<path d="M64.424 37.3628L65.443 39.5269H65.2072L64.8649 38.8142H63.923L63.5823 39.5269H63.3387L64.3701 37.3628H64.424ZM64.3978 37.8237L64.0217 38.6066H64.7663L64.3978 37.8237Z" fill="#C4842A"/>
<path d="M66.0314 37.3628H66.4661C66.7143 37.3628 66.8823 37.3735 66.9702 37.3948C67.0951 37.4269 67.1968 37.4895 67.2785 37.5826C67.3556 37.6757 67.3972 37.7962 67.3972 37.9382C67.3972 38.0832 67.3587 38.2022 67.2801 38.2953C67.2045 38.3869 67.0982 38.4525 66.9625 38.483C66.8638 38.5074 66.6773 38.5181 66.4075 38.5181H66.2487V39.5239H66.0329V37.3628H66.0314ZM66.2487 37.578V38.309L66.6187 38.3151C66.7698 38.3151 66.8793 38.2999 66.9486 38.2739C67.018 38.2465 67.072 38.2037 67.1105 38.1427C67.1506 38.0832 67.1691 38.0145 67.1691 37.9412C67.1691 37.868 67.1506 37.8039 67.1105 37.7428C67.072 37.6818 67.0211 37.639 66.9548 37.6146C66.8885 37.5902 66.7852 37.578 66.6372 37.578H66.2487Z" fill="#C4842A"/>
<path d="M69.2177 37.578V37.3628H70.417V37.578H69.9299V39.5269H69.7079V37.578H69.2177Z" fill="#C4842A"/>
<path d="M71.1112 37.3628H71.5505C71.7895 37.3628 71.956 37.372 72.0408 37.3933C72.1702 37.4208 72.2751 37.4849 72.3568 37.5826C72.4369 37.6787 72.4801 37.7978 72.4801 37.9397C72.4801 38.0572 72.4524 38.161 72.3953 38.248C72.3398 38.338 72.2581 38.4067 72.1548 38.4525C72.0515 38.4968 71.9082 38.5212 71.7247 38.5227L72.5109 39.5269H72.2396L71.4534 38.5227H71.3285V39.5269H71.1096V37.3628H71.1112ZM71.3285 37.578V38.309L71.7047 38.3136C71.8527 38.3136 71.9606 38.2984 72.0269 38.2709C72.0978 38.2434 72.1517 38.2007 72.1934 38.1396C72.2319 38.0786 72.252 38.0114 72.252 37.9382C72.252 37.8664 72.2304 37.7993 72.1903 37.7413C72.1502 37.6802 72.0962 37.639 72.0361 37.6146C71.9714 37.5902 71.8635 37.578 71.7139 37.578H71.3285Z" fill="#C4842A"/>
<path d="M74.249 37.3628L75.268 39.5269H75.0353L74.6899 38.8142H73.7496L73.4089 39.5269H73.1653L74.1982 37.3628H74.249ZM74.2213 37.8237L73.8498 38.6066H74.5959L74.2213 37.8237Z" fill="#C4842A"/>
<path d="M75.964 39.5269V37.3628H76.0087L77.464 39.0218V37.3628H77.6798V39.5269H77.632L76.1875 37.8893V39.5269H75.964Z" fill="#C4842A"/>
<path d="M33.9985 37.4726C34.0308 37.439 34.0524 37.4008 34.0648 37.352C34.0771 37.3062 34.0817 37.2543 34.0817 37.1994H33.8258V36.9705H34.2374V37.0269C34.2374 37.0468 34.2405 37.0697 34.2467 37.0956C34.2467 37.1505 34.2436 37.207 34.2374 37.2681C34.2374 37.3337 34.2205 37.3947 34.1896 37.4482C34.1573 37.5031 34.1095 37.5504 34.0509 37.5886C34.0339 37.6023 34.017 37.6145 33.9969 37.6267C33.9769 37.6374 33.9584 37.645 33.9383 37.6527C34.0324 37.758 34.1048 37.8801 34.1573 38.0159C34.2097 38.1517 34.2374 38.2967 34.2374 38.4478C34.2374 38.779 34.128 39.0583 33.9106 39.2903C33.6917 39.5223 33.4281 39.6382 33.1167 39.6382C32.8145 39.6382 32.554 39.5253 32.332 39.301C32.1038 39.0675 31.9897 38.7897 31.9897 38.4676C31.9897 38.1349 32.0992 37.8541 32.3197 37.6221C32.537 37.3947 32.8037 37.2772 33.112 37.2772C33.2477 37.2772 33.3803 37.3032 33.5098 37.3566C33.6377 37.4085 33.7533 37.4817 33.8536 37.5779C33.8643 37.5733 33.8875 37.5596 33.9276 37.5321C33.9661 37.5031 33.9908 37.4848 33.9985 37.4726ZM33.1228 37.4985C32.8685 37.497 32.6542 37.5916 32.4754 37.7793C32.2981 37.9686 32.2087 38.196 32.2087 38.4661C32.2087 38.7271 32.2981 38.9515 32.4784 39.1346C32.6603 39.3223 32.8746 39.4139 33.1228 39.4139C33.3695 39.4139 33.5822 39.3208 33.7626 39.1331C33.9414 38.9453 34.0308 38.7164 34.0308 38.4463C34.0308 38.1853 33.9383 37.9625 33.7549 37.7763C33.573 37.5931 33.3633 37.4985 33.1228 37.4985Z" fill="#C4842A"/>
<path d="M40.3273 39.6416H40.13V39.9728H40.3273V39.6416Z" fill="#C4842A"/>
<path d="M52.5273 37.2466L52.9945 36.9001L53.1656 37.0436L52.6137 37.326L52.5273 37.2466Z" fill="#C4842A"/>
<path d="M63.9363 37.3535L64.3232 37.0193H64.4943L64.8874 37.3535L64.6439 37.3566L64.4096 37.1643L64.1783 37.3535H63.9363ZM64.3124 39.6657H64.5113V39.9999H64.3124V39.6657Z" fill="#C4842A"/>
<path d="M74.6781 37.2466L74.5918 37.326L74.0383 37.0436L74.2094 36.9001L74.6781 37.2466Z" fill="#C4842A"/>
<path d="M47.9686 0.00152769C42.9198 0.607427 37.7585 2.27098 37.4162 7.30589C37.2575 9.66081 37.982 11.4297 38.7991 13.1375C36.7472 11.1168 33.7842 9.49598 29.6311 9.89127C32.1609 10.6086 35.147 11.9806 36.7518 13.7937C37.091 14.1799 37.5874 14.8483 37.4702 15.4161C37.276 16.373 35.5139 16.1777 34.4471 16.2296C36.6593 17.1163 39.1321 18.7142 42.2862 18.6104C43.8633 18.5601 45.021 17.6016 44.8992 15.8236C44.6772 12.6293 42.3263 9.8989 42.0796 6.28945C41.8052 2.21756 44.6649 0.723414 47.8699 0.0549408C47.9346 0.0747813 48.0364 0.0549479 48.0626 0.0335811C48.0842 0.0183192 48.0641 0 47.9763 0H47.9686V0.00152769Z" fill="url(#paint0_linear)"/>
<defs>
<linearGradient id="paint0_linear" x1="45.948" y1="12.9496" x2="38.0152" y2="4.62846" gradientUnits="userSpaceOnUse">
<stop stop-color="#FDB913"/>
<stop offset="0.2233" stop-color="#E5A521"/>
<stop offset="0.5065" stop-color="#CE9130"/>
<stop offset="0.7721" stop-color="#C08538"/>
<stop offset="1" stop-color="#BB813B"/>
</linearGradient>
</defs>
</svg>
