<svg width="24" height="24" viewBox="0 0 24 24" fill="none" xmlns="http://www.w3.org/2000/svg">
<g clip-path="url(#clip0)">
<path d="M22.1483 22.3056H21.1907V8.39914C21.1907 7.75198 20.6641 7.22534 20.0169 7.22534H17.8763C17.2291 7.22534 16.7025 7.75198 16.7025 8.39914V22.3056H14.2706V14.7C14.2706 14.0528 13.744 13.5262 13.0968 13.5262H10.9562C10.3091 13.5262 9.78245 14.0528 9.78245 14.7V22.3056H7.34927V18.3668C7.34927 17.7196 6.82263 17.193 6.17547 17.193H4.03487C3.38771 17.193 2.86108 17.7196 2.86108 18.3668V22.3056H1.85147C1.61043 22.3056 1.41479 22.5013 1.41479 22.7423C1.41479 22.9834 1.61043 23.179 1.85147 23.179H22.1483C22.3894 23.179 22.585 22.9834 22.585 22.7423C22.585 22.5013 22.3894 22.3056 22.1483 22.3056ZM6.47591 22.3056H3.73444V18.3668C3.73444 18.2009 3.86937 18.0664 4.03487 18.0664H6.17547C6.34098 18.0664 6.47591 18.2013 6.47591 18.3668V22.3056ZM13.3964 22.3056H10.6549V14.7C10.6549 14.5341 10.7899 14.3996 10.9554 14.3996H13.096C13.2615 14.3996 13.3964 14.5345 13.3964 14.7V22.3056ZM20.3169 22.3056H17.575V8.39914C17.575 8.23364 17.7099 8.0987 17.8754 8.0987H20.016C20.182 8.0987 20.3165 8.23364 20.3165 8.39914L20.3169 22.3056Z" fill="#162B75"/>
<path d="M21.0663 3.44142C21.1157 3.32292 21.117 3.18526 21.0581 3.05996C20.999 2.9351 20.8914 2.84826 20.7683 2.81173C20.7614 2.80876 20.7546 2.80535 20.7471 2.80266L18.0719 1.8462C17.8278 1.75893 17.5589 1.8862 17.4717 2.13028C17.3844 2.37437 17.5117 2.64329 17.7557 2.73056L19.4077 3.32119L16.0156 4.92656L16.0158 4.92865L1.77968 11.4027C1.54387 11.5099 1.43922 11.7886 1.54641 12.0245C1.60114 12.1448 1.70042 12.2311 1.81583 12.2724C1.92682 12.3121 2.05267 12.3102 2.16817 12.2577L16.1772 5.8875L16.1776 5.88914L16.2797 5.84085L19.7819 4.2484L19.2754 5.66514C19.1881 5.90923 19.3154 6.17815 19.5594 6.26542C19.8035 6.35268 20.0724 6.22541 20.1597 5.98133L21.0601 3.46312C21.0621 3.45588 21.0642 3.44865 21.0663 3.44142Z" fill="#162B75"/>
</g>
<defs>
<clipPath id="clip0">
<rect width="21.1702" height="22.358" fill="white" transform="translate(1.41479 0.821045)"/>
</clipPath>
</defs>
</svg>
